<?xml version="1.0" encoding="utf-8"?>
<!-- Generator: Adobe Illustrator 13.0.0, SVG Export Plug-In . SVG Version: 6.00 Build 14948)  -->
<!DOCTYPE svg PUBLIC "-//W3C//DTD SVG 1.1//EN" "http://www.w3.org/Graphics/SVG/1.1/DTD/svg11.dtd">
<svg version="1.1" id="Layer_1" xmlns="http://www.w3.org/2000/svg" xmlns:xlink="http://www.w3.org/1999/xlink" x="0px" y="0px"
	 width="64px" height="64px" viewBox="0 0 64 64" enable-background="new 0 0 64 64" xml:space="preserve">
<g display="none">
	<path fill="#70C1C4" d="M40.357,71.948c-0.266,0.067-0.596,0.134-0.857,0.2C39.762,72.082,40.025,72.016,40.357,71.948z"/>
	<path fill="#70C1C4" d="M42.335,71.422c-0.265,0.067-0.594,0.133-0.856,0.265C41.741,71.62,42.004,71.555,42.335,71.422z"/>
	<path fill="#70C1C4" d="M46.092,70.234c-0.262,0.135-0.593,0.199-0.855,0.332C45.564,70.434,45.83,70.301,46.092,70.234z"/>
	<path fill="#70C1C4" d="M44.246,70.895c-0.264,0.068-0.593,0.197-0.856,0.265C43.653,71.092,43.916,70.963,44.246,70.895z"/>
	<path fill="#70C1C4" d="M38.313,72.346c-0.265,0.065-0.594,0.132-0.857,0.132C37.719,72.411,38.048,72.411,38.313,72.346z"/>
	<path fill="#70C1C4" d="M27.3,72.741c-0.198,0-0.331,0-0.526-0.065C26.969,72.741,27.167,72.741,27.3,72.741z"/>
	<path fill="#70C1C4" d="M47.939,69.443c-0.264,0.133-0.594,0.265-0.857,0.396C47.41,69.708,47.676,69.576,47.939,69.443z"/>
	<path fill="#70C1C4" d="M36.203,72.611c-0.266,0-0.529,0.064-0.794,0.064C35.674,72.676,35.938,72.676,36.203,72.611z"/>
	<path fill="#70C1C4" d="M29.344,72.873c-0.197,0-0.395,0-0.528,0C28.949,72.873,29.146,72.873,29.344,72.873z"/>
	<path fill="#70C1C4" d="M34.025,72.807c-0.264,0-0.462,0.066-0.726,0.066C33.563,72.873,33.828,72.873,34.025,72.807z"/>
	<path fill="#70C1C4" d="M57.961,63.247c-0.262,0.196-0.526,0.396-0.791,0.592C57.435,63.708,57.699,63.509,57.961,63.247z"/>
	<path fill="#70C1C4" d="M61.26,60.214c0.658-0.727,1.318-1.452,1.979-2.177C62.578,58.762,61.918,59.487,61.26,60.214z"/>
	<path fill="#70C1C4" d="M60.864,60.675c-0.265,0.263-0.527,0.527-0.791,0.726C60.337,61.137,60.6,60.87,60.864,60.675z"/>
	<path fill="#70C1C4" d="M24.992,72.478c-0.133,0-0.264-0.066-0.397-0.066C24.728,72.411,24.859,72.478,24.992,72.478z"/>
	<path fill="#70C1C4" d="M56.446,64.499c-0.265,0.196-0.529,0.396-0.791,0.593C55.917,64.895,56.182,64.695,56.446,64.499z"/>
	<path fill="#70C1C4" d="M53.215,66.677c-0.264,0.196-0.527,0.328-0.792,0.459C52.622,67.005,52.951,66.873,53.215,66.677z"/>
	<path fill="#70C1C4" d="M51.5,67.729c-0.264,0.135-0.527,0.332-0.857,0.463C50.973,67.993,51.236,67.863,51.5,67.729z"/>
	<path fill="#70C1C4" d="M49.785,68.587c-0.264,0.133-0.593,0.263-0.856,0.396C49.192,68.918,49.454,68.786,49.785,68.587z"/>
	<path fill="#70C1C4" d="M54.863,65.619c-0.265,0.199-0.527,0.33-0.79,0.528C54.27,66.015,54.599,65.818,54.863,65.619z"/>
	<path fill="#70C1C4" d="M59.413,61.994c-0.264,0.197-0.528,0.459-0.791,0.657C58.885,62.453,59.149,62.191,59.413,61.994z"/>
	<path fill="#70C1C4" d="M69.173,48.607c-0.134,0.327-0.33,0.727-0.528,1.055C68.843,49.334,69.039,48.935,69.173,48.607z"/>
	<path fill="#70C1C4" d="M69.962,46.825c-0.129,0.396-0.262,0.726-0.461,1.058C69.7,47.551,69.833,47.157,69.962,46.825z"/>
	<path fill="#70C1C4" d="M71.812,41.155c-0.067,0.396-0.199,0.792-0.331,1.188C71.612,41.947,71.678,41.551,71.812,41.155z"/>
	<path fill="#70C1C4" d="M70.688,44.979c-0.132,0.398-0.263,0.726-0.396,1.121C70.426,45.705,70.557,45.311,70.688,44.979z"/>
	<path fill="#70C1C4" d="M68.313,50.387c-0.197,0.33-0.327,0.659-0.526,1.056C67.986,51.046,68.184,50.717,68.313,50.387z"/>
	<path fill="#70C1C4" d="M71.282,43.068c-0.131,0.394-0.262,0.789-0.329,1.121C71.021,43.792,71.151,43.462,71.282,43.068z"/>
	<path fill="#70C1C4" d="M64.161,56.851c-0.264,0.328-0.526,0.657-0.791,0.989C63.699,57.508,63.897,57.179,64.161,56.851z"/>
	<path fill="#70C1C4" d="M65.281,55.33c-0.196,0.332-0.462,0.663-0.725,0.992C64.819,55.993,65.085,55.662,65.281,55.33z"/>
	<path fill="#70C1C4" d="M23.146,72.148c-0.198-0.066-0.396-0.066-0.593-0.133C22.75,72.082,22.948,72.082,23.146,72.148z"/>
	<path fill="#70C1C4" d="M67.392,52.102c-0.196,0.33-0.396,0.659-0.594,0.989C66.995,52.761,67.195,52.432,67.392,52.102z"/>
	<path fill="#70C1C4" d="M66.402,53.751c-0.198,0.328-0.396,0.66-0.658,0.989C65.943,54.411,66.14,54.079,66.402,53.751z"/>
	<path fill="#70C1C4" d="M15.232,69.774c-0.132-0.066-0.33-0.131-0.462-0.198C14.968,69.644,15.101,69.708,15.232,69.774z"/>
	<path fill="#70C1C4" d="M17.277,70.499c-0.198-0.065-0.396-0.13-0.594-0.198C16.881,70.369,17.079,70.434,17.277,70.499z"/>
	<path fill="#70C1C4" d="M13.386,68.918c-0.198-0.068-0.396-0.198-0.594-0.331C12.99,68.72,13.188,68.85,13.386,68.918z"/>
	<path fill="#70C1C4" d="M18.991,71.092c-0.198-0.065-0.396-0.129-0.528-0.197C18.661,70.963,18.858,71.026,18.991,71.092z"/>
	<path fill="#70C1C4" d="M72.206,39.177c-0.066,0.396-0.134,0.791-0.264,1.188C72.072,39.968,72.14,39.573,72.206,39.177z"/>
	<path fill="#70C1C4" d="M21.167,71.687c-0.132-0.066-0.265-0.066-0.462-0.132C20.903,71.62,21.036,71.687,21.167,71.687z"/>
	<path fill="#70C1C4" d="M72.535,37.2c-0.065,0.396-0.133,0.857-0.196,1.253C72.402,37.991,72.535,37.596,72.535,37.2z"/>
	<path fill="#70C1C4" d="M72.798,35.155c-0.063,0.396-0.063,0.857-0.13,1.254C72.734,36.013,72.734,35.552,72.798,35.155z"/>
	<path fill="#70C1C4" d="M11.737,68.125c-0.198-0.132-0.396-0.196-0.594-0.329C11.341,67.929,11.539,67.993,11.737,68.125z"/>
	<path fill="#70C1C4" d="M9.76,66.938c-0.198-0.13-0.331-0.197-0.462-0.328C9.429,66.74,9.562,66.873,9.76,66.938z"/>
	<path fill="#FFFFFF" d="M55.852,7.459H8.045C6.726,7.459,6,8.778,6,10.031v32.642c0,1.055,0.594,1.977,1.518,2.242
		c0.198,0.064,0.262,0.064,0.527,0.064h47.807c0.133,0,0.133,0,0.266,0c1.118-0.197,1.91-1.122,1.91-2.307V10.361v-0.33
		C58.095,8.778,57.17,7.459,55.852,7.459z M56.117,40.43c0,1.121-0.857,1.979-2.044,1.979H10.352c-1.187,0-2.373-0.857-2.373-1.979
		V11.877c0-1.121,1.187-1.78,2.373-1.78h43.785c1.188,0,2.045,0.659,2.045,1.78V40.43H56.117z"/>
	<path fill="#FFFFFF" d="M1.846,48.344H1.714c-0.659,0-1.188,0.527-1.318,1.12c0,0.066-0.067,0.198-0.067,0.266
		c0,0.063,0,0.262,0,0.329c0,0.792,0.66,1.515,1.451,1.515h0.923h58.423c0.791,0,1.451-0.856,1.451-1.647
		c0-0.79-0.66-1.647-1.451-1.647h-0.726H1.846V48.344z"/>
	<path fill="#DEDED8" d="M38.84,31.857c-0.068,0.066-0.068,0.132-0.132,0.199C38.771,31.989,38.84,31.924,38.84,31.857z"/>
	<path fill="#DEDED8" d="M39.366,31.132c-0.065,0.066-0.131,0.133-0.131,0.264C39.301,31.265,39.366,31.199,39.366,31.132z"/>
	<path fill="#DEDED8" d="M39.762,30.473c-0.065,0.066-0.065,0.133-0.132,0.198C39.696,30.67,39.696,30.605,39.762,30.473z"/>
	<path fill="#DEDED8" d="M37.981,27.901v-0.066C37.981,27.835,37.981,27.835,37.981,27.901z"/>
	<path fill="#DEDED8" d="M36.466,30.67L36.4,30.737C36.4,30.737,36.4,30.67,36.466,30.67z"/>
	<path fill="#DEDED8" d="M35.014,18.867v2.639c0.66,0.13,0.265,0.197,0.331,0.329c-0.066-0.066-0.066-0.066-0.132-0.131
		c1.714,0.988,2.901,2.835,2.901,4.945c0,0.066,0,0.066,0,0.132v-0.065c0.594,1.253,1.187,2.505,1.647,3.824
		c0.596-1.121,0.792-2.44,0.792-3.824C40.619,23.021,38.313,19.989,35.014,18.867z"/>
	<path fill="#DEDED8" d="M38.377,32.385c-0.064,0.066-0.132,0.133-0.197,0.199C38.245,32.518,38.313,32.451,38.377,32.385z"/>
	<path fill="#DEDED8" d="M38.048,27.308v-0.065C38.114,27.242,38.048,27.308,38.048,27.308z"/>
	<path fill="#DEDED8" d="M36.53,33.838c-0.064,0-0.13,0.064-0.197,0.064C36.4,33.902,36.466,33.838,36.53,33.838z"/>
	<path fill="#DEDED8" d="M37.652,28.89L37.652,28.89L37.652,28.89z"/>
	<path fill="#DEDED8" d="M37.389,29.418C37.389,29.418,37.389,29.352,37.389,29.418C37.389,29.352,37.389,29.418,37.389,29.418z"/>
	<path fill="#DEDED8" d="M32.442,32.318c0.199,0,0.396,0,0.595,0C32.838,32.318,32.642,32.318,32.442,32.318z"/>
	<path fill="#DEDED8" d="M35.477,31.462c0.066,0,0.132-0.065,0.132-0.065C35.543,31.396,35.477,31.396,35.477,31.462z"/>
	<path fill="#DEDED8" d="M33.432,34.824c-0.066,0-0.132,0-0.198,0C33.233,34.892,33.3,34.824,33.432,34.824z"/>
	<path fill="#DEDED8" d="M33.233,32.254c0.132,0,0.267,0,0.396-0.066C33.432,32.188,33.365,32.254,33.233,32.254z"/>
	<path fill="#DEDED8" d="M36.729,30.341l0.067-0.066C36.796,30.275,36.796,30.275,36.729,30.341z"/>
	<path fill="#DEDED8" d="M34.948,31.727c0.065,0,0.133-0.066,0.199-0.066C35.081,31.66,35.014,31.66,34.948,31.727z"/>
	<path fill="#DEDED8" d="M33.828,32.122c0.066,0,0.197-0.065,0.262-0.065C34.025,32.057,33.96,32.122,33.828,32.122z"/>
	<path fill="#DEDED8" d="M37.06,29.879C37.124,29.879,37.124,29.814,37.06,29.879C37.124,29.814,37.124,29.879,37.06,29.879z"/>
	<path fill="#DEDED8" d="M34.421,31.924c0.066,0,0.131-0.066,0.198-0.066C34.552,31.924,34.487,31.924,34.421,31.924z"/>
	<path fill="#DEDED8" d="M35.938,31.132c0.066,0,0.066-0.066,0.133-0.066C36.004,31.066,35.938,31.066,35.938,31.132z"/>
	<path fill="#DEDED8" d="M35.74,34.231c-0.066,0-0.132,0.067-0.197,0.067C35.608,34.299,35.674,34.231,35.74,34.231z"/>
	<path fill="#DEDED8" d="M37.124,33.441c-0.064,0.064-0.131,0.064-0.197,0.13C36.993,33.506,37.06,33.506,37.124,33.441z"/>
	<path fill="#DEDED8" d="M35.014,34.496c-0.065,0-0.131,0.065-0.196,0.065C34.883,34.562,34.948,34.496,35.014,34.496z"/>
	<path fill="#DEDED8" d="M34.156,34.76c-0.066,0-0.066,0-0.131,0C34.025,34.76,34.09,34.76,34.156,34.76z"/>
	<path fill="#DEDED8" d="M37.85,28.429C37.85,28.363,37.85,28.363,37.85,28.429C37.85,28.363,37.85,28.363,37.85,28.429z"/>
	<path fill="#DEDED8" d="M37.786,32.913c-0.067,0.067-0.067,0.067-0.134,0.132C37.719,32.98,37.786,32.98,37.786,32.913z"/>
	<path fill="#DEDED8" d="M33.695,16.823c0-0.726-0.527-1.318-1.186-1.318c-0.396,0-0.727,0.132-0.99,0.396
		c0.594,0.856,1.518,1.978,2.176,3.296V16.823z"/>
	<path fill="#DEDED8" d="M31.453,16.097c0-0.065,0.066-0.065,0.066-0.13C31.52,16.032,31.52,16.032,31.453,16.097z"/>
	<path fill="#DEDED8" d="M31.389,16.295c0-0.065,0.064-0.065,0.064-0.13C31.389,16.23,31.389,16.23,31.389,16.295z"/>
	<path fill="#DEDED8" d="M31.256,16.559c0-0.064,0-0.064,0-0.131C31.322,16.494,31.322,16.494,31.256,16.559z"/>
	<path fill="#FFFFFF" d="M35.278,21.506v0.197c0.066,0.065,0.131,0.065,0.198,0.131C35.409,21.703,35.345,21.636,35.278,21.506z"/>
	<path fill="#FFFFFF" d="M38.114,26.78c0,0.131,0,0.33,0,0.462v0.065c0,0.132-0.066,0.33-0.066,0.462v0.065
		c-0.066,0.133-0.066,0.331-0.132,0.462v0.066c-0.066,0.131-0.13,0.329-0.197,0.461v0.065c-0.066,0.132-0.132,0.264-0.2,0.461
		c0,0,0,0.066-0.063,0.066c-0.066,0.131-0.132,0.264-0.264,0.396l-0.067,0.065c-0.064,0.132-0.197,0.264-0.263,0.396l-0.065,0.066
		c-0.067,0.131-0.198,0.198-0.33,0.329L36.4,30.737c-0.133,0.067-0.197,0.198-0.33,0.262c-0.066,0-0.066,0.067-0.133,0.067
		c-0.133,0.066-0.197,0.132-0.329,0.264c-0.065,0-0.132,0.066-0.132,0.066c-0.132,0.065-0.198,0.132-0.329,0.197
		c-0.066,0-0.134,0.066-0.199,0.066c-0.131,0.066-0.196,0.131-0.329,0.131c-0.067,0-0.132,0.066-0.198,0.066
		c-0.131,0.066-0.198,0.066-0.331,0.132c-0.064,0-0.195,0.067-0.262,0.067s-0.198,0.065-0.265,0.065
		c-0.132,0-0.264,0.065-0.396,0.065c-0.064,0-0.131,0-0.196,0c-0.198,0-0.397,0-0.596,0c-3.165,0-5.801-2.572-5.801-5.67
		c0-1.979,1.12-3.759,2.438-4.749v-2.901c-2.637,1.253-5.077,4.221-5.077,7.715c0,4.55,3.759,8.309,8.375,8.309
		c0.263,0,0.526,0,0.792-0.067c0.064,0,0.13,0,0.196,0c0.2,0,0.396-0.064,0.595-0.064c0.065,0,0.065,0,0.131,0
		c0.265-0.064,0.462-0.133,0.727-0.198c0.065,0,0.131-0.065,0.196-0.065c0.199-0.068,0.33-0.133,0.528-0.199
		c0.066,0,0.132-0.065,0.197-0.065c0.198-0.065,0.396-0.199,0.594-0.329c0.065,0,0.133-0.064,0.198-0.064
		c0.132-0.067,0.33-0.199,0.461-0.267c0.066-0.065,0.133-0.065,0.197-0.13c0.199-0.133,0.331-0.266,0.528-0.396
		c0.066-0.064,0.066-0.064,0.134-0.132c0.13-0.132,0.262-0.199,0.394-0.329c0.065-0.066,0.133-0.133,0.197-0.199
		c0.133-0.131,0.198-0.263,0.331-0.396c0.063-0.065,0.063-0.132,0.132-0.198c0.131-0.131,0.264-0.329,0.396-0.526
		c0.065-0.066,0.131-0.133,0.131-0.266c0.067-0.129,0.134-0.262,0.264-0.394c0.066-0.066,0.066-0.133,0.132-0.198l0,0l0,0
		c-0.461-1.254-1.054-2.507-1.647-3.825C38.114,26.715,38.114,26.715,38.114,26.78z"/>
	<path fill="#FFFFFF" d="M32.376,27.11c0.728,0,1.319-0.593,1.319-1.319v-6.595c-0.658-1.318-1.319-2.44-1.978-3.296l0,0
		c0,0-0.066,0.067-0.133,0.067c0,0.065-0.065,0.065-0.132,0.13l-0.064,0.067c0,0.065-0.066,0.065-0.066,0.13
		c0,0.067,0,0.067-0.066,0.133c0,0.066-0.132,0.066-0.132,0.131c0,0.067-0.132,0.198-0.132,0.264v8.968
		C31.058,26.517,31.651,27.11,32.376,27.11z"/>
</g>
<g id="laptop">
	<g display="none">
		<path display="inline" fill="#6EAEA4" d="M72.668,35.022L61.42,15.989l-3.325-5.628v32.377c0,1.188-0.791,2.044-1.913,2.177
			l4.22,3.429h0.726c0.791,0,1.451,0.858,1.451,1.647c0,0.791-0.66,1.649-1.451,1.649H2.704l-1.122,0.791
			c0,0,0.103,0.345,0.309,0.938c0.713,2.048,2.729,7.221,6.614,12.845c0.265,0.131,0.462,0.264,0.727,0.463
			c0.131,0.131,0.33,0.196,0.461,0.328c0.461,0.264,0.989,0.593,1.451,0.858c0.198,0.13,0.396,0.197,0.594,0.328
			c0.33,0.199,0.66,0.329,1.055,0.528c0.198,0.13,0.396,0.198,0.594,0.327c0.461,0.201,0.923,0.396,1.385,0.597
			c0.132,0.064,0.33,0.131,0.462,0.195c0.461,0.199,0.923,0.396,1.384,0.53c0.198,0.064,0.396,0.13,0.594,0.197
			c0.396,0.13,0.791,0.263,1.188,0.396c0.198,0.063,0.396,0.129,0.527,0.196c0.593,0.199,1.121,0.33,1.714,0.461
			c0.132,0.066,0.263,0.066,0.461,0.134c0.462,0.131,0.924,0.194,1.385,0.328c0.198,0.066,0.396,0.066,0.594,0.132
			c0.461,0.066,0.989,0.197,1.451,0.264c0.132,0,0.264,0.066,0.396,0.066c0.594,0.067,1.254,0.197,1.848,0.263
			c0.195,0,0.328,0,0.526,0.066c0.462,0.066,0.989,0.066,1.45,0.134c0.199,0,0.396,0,0.527,0c0.659,0,1.254,0.065,1.912,0.065
			c0.727,0,1.385,0,2.11-0.065c0.264,0,0.462-0.067,0.726-0.067c0.462,0,0.923-0.066,1.384-0.133c0.265,0,0.528-0.065,0.794-0.065
			c0.395-0.065,0.79-0.065,1.252-0.13c0.264-0.067,0.593-0.067,0.857-0.134c0.396-0.066,0.791-0.132,1.121-0.197
			c0.263-0.066,0.592-0.132,0.857-0.198c0.395-0.066,0.724-0.134,1.119-0.265c0.266-0.063,0.594-0.131,0.857-0.263
			c0.331-0.065,0.727-0.196,1.058-0.33c0.262-0.065,0.591-0.198,0.856-0.262c0.328-0.134,0.658-0.198,0.986-0.332
			c0.268-0.132,0.595-0.197,0.859-0.33c0.329-0.131,0.659-0.263,0.989-0.395c0.264-0.132,0.594-0.263,0.857-0.396
			c0.327-0.133,0.659-0.263,0.924-0.396c0.263-0.133,0.592-0.266,0.855-0.396c0.33-0.133,0.594-0.329,0.924-0.464
			c0.263-0.131,0.593-0.327,0.858-0.46c0.263-0.131,0.592-0.328,0.856-0.527c0.264-0.133,0.527-0.331,0.79-0.461
			c0.264-0.198,0.528-0.33,0.858-0.527c0.264-0.198,0.527-0.331,0.791-0.528c0.263-0.199,0.528-0.396,0.79-0.595
			c0.266-0.195,0.529-0.396,0.793-0.59c0.262-0.199,0.525-0.396,0.724-0.597c0.266-0.196,0.527-0.395,0.793-0.592
			c0.264-0.198,0.462-0.398,0.727-0.594c0.261-0.198,0.525-0.461,0.791-0.66c0.198-0.196,0.394-0.396,0.657-0.592
			c0.265-0.266,0.526-0.528,0.794-0.727c0.129-0.132,0.262-0.33,0.396-0.462c0.656-0.727,1.318-1.45,1.976-2.176
			c0.133-0.198,0.199-0.266,0.199-0.329c0.265-0.332,0.527-0.661,0.791-0.989c0.132-0.199,0.263-0.33,0.396-0.528
			c0.263-0.329,0.461-0.66,0.725-0.992c0.132-0.192,0.265-0.394,0.463-0.59c0.199-0.329,0.46-0.661,0.658-0.989
			c0.133-0.198,0.265-0.463,0.396-0.66c0.197-0.33,0.397-0.659,0.594-0.989c0.133-0.198,0.264-0.461,0.396-0.659
			c0.199-0.33,0.396-0.66,0.526-1.056c0.134-0.264,0.266-0.461,0.331-0.725c0.198-0.328,0.33-0.728,0.528-1.055
			c0.133-0.264,0.197-0.464,0.328-0.725c0.134-0.332,0.332-0.726,0.461-1.058c0.134-0.261,0.199-0.46,0.267-0.725
			c0.129-0.396,0.263-0.723,0.396-1.121c0.063-0.263,0.196-0.525,0.262-0.727c0.134-0.396,0.265-0.723,0.33-1.118
			c0.065-0.264,0.132-0.528,0.199-0.792c0.131-0.396,0.196-0.792,0.328-1.188c0.067-0.263,0.132-0.526,0.198-0.791
			c0.065-0.396,0.197-0.791,0.264-1.188c0.066-0.264,0.066-0.526,0.133-0.791c0.063-0.395,0.131-0.79,0.196-1.251
			c0.064-0.267,0.064-0.529,0.064-0.726c0.068-0.396,0.135-0.857,0.135-1.254c0-0.064,0-0.133,0-0.133H72.668z"/>
		<path display="inline" fill="#70C1C4" d="M72.931,31.199c0-23.08-18.661-41.741-41.741-41.741
			c-23.08,0-41.674,18.661-41.674,41.741c0,14.638,7.583,27.563,18.99,35.015c-3.922-5.678-5.939-10.855-6.634-12.845
			c-0.193-0.552-0.29-0.872-0.29-0.872l0.016-0.013l1.105-0.844H1.714c-0.792,0-1.451-0.725-1.451-1.518c0-0.064,0-0.197,0-0.264H0
			l0.329-0.396c0.198-0.593,0.726-1.12,1.319-1.12H1.78l5.738-3.495C6.528,44.585,6,43.792,6,42.738V10.031
			c0-1.318,0.726-2.572,2.044-2.572h47.807c1.318,0,2.243,1.319,2.243,2.572v0.33l3.32,5.579l11.319,19.017
			C72.866,33.704,72.931,32.451,72.931,31.199z"/>
	</g>
	<path fill="#666666" d="M55.852,7.459H8.045C6.726,7.459,6,8.713,6,10.031v32.707c0,1.054,0.528,1.847,1.518,2.11L1.78,48.344
		H1.648c-0.593,0-1.122,0.527-1.319,1.12L0,49.859h0.264c0,0.066,0,0.199,0,0.264c0,0.793,0.659,1.518,1.451,1.518h0.989h58.423
		c0.791,0,1.451-0.858,1.451-1.649c0-0.789-0.66-1.647-1.451-1.647h-0.726l-4.22-3.429c1.122-0.133,1.913-0.989,1.913-2.177V10.361
		v-0.33C58.095,8.778,57.17,7.459,55.852,7.459z"/>
	<path fill="#7A8DA2" d="M53.082,10.756H32.904c7.979,7.913,13.188,21.101,16.024,30.334h4.153c1.122,0,1.717-0.99,1.717-2.045
		V12.735C54.799,11.68,54.204,10.756,53.082,10.756z"/>
	<path fill="#DEDED8" d="M0,49.793h0.264c0-0.063,0-0.131,0.065-0.197L0,49.793z"/>
	<path fill="#DEDED8" d="M8.045,45.046c-0.265,0-0.462-0.197-0.66-0.264L1.78,48.344h58.557l-4.155-3.429
		c-0.131,0-0.197,0.131-0.33,0.131H8.045z"/>
	<g>
		<path fill="none" d="M32.51,15.504c-0.33,0-0.792,0.132-0.792,0.396l-0.133,0.067c0,0.065-0.132,0.065-0.132,0.13l-0.064,0.067
			c0,0.065-0.066,0.065-0.066,0.13c0,0.067-0.066,0.067-0.066,0.133c0,0.013-0.009,0.017-0.013,0.025l2.417,0.153
			C33.575,15.987,33.157,15.504,32.51,15.504z"/>
		<path fill="none" d="M38.222,21.03l1.284,1.698C39.147,22.113,38.727,21.536,38.222,21.03z"/>
		<path fill="none" d="M53.082,10.756H32.904c7.979,7.913,13.188,21.101,16.024,30.334h4.153c1.122,0,1.717-0.99,1.717-2.045V12.735
			C54.799,11.68,54.204,10.756,53.082,10.756z"/>
		<path fill="#5D768B" d="M54.073,10.097H10.352c-1.187,0-2.373,0.659-2.373,1.78V40.43c0,1.121,1.187,1.979,2.373,1.979h43.785
			c1.188,0,2.045-0.857,2.045-1.979V11.877C56.117,10.756,55.26,10.097,54.073,10.097z M39,39.188L28.313,38.75l-7.563-2.125
			L19.125,18.5l3-2.625l9.118,0.578c0.004-0.009,0.013-0.013,0.013-0.025c0-0.065,0.066-0.065,0.066-0.133
			c0-0.065,0.066-0.065,0.066-0.13l0.064-0.067c0-0.065,0.132-0.065,0.132-0.13l0.133-0.067c0-0.264,0.462-0.396,0.792-0.396
			c0.647,0,1.065,0.483,1.15,1.102l1.277,0.081l3.284,4.343c0.505,0.506,0.926,1.083,1.284,1.698l2.994,3.959l1.938,9.625L39,39.188
			z M54.799,39.046c0,1.055-0.595,2.045-1.717,2.045h-4.153c-2.837-9.233-8.045-22.421-16.024-30.334h20.178
			c1.122,0,1.717,0.923,1.717,1.979V39.046z"/>
		<polygon fill="#5D768B" points="39.506,22.728 38.222,21.03 34.938,16.688 33.66,16.606 31.243,16.453 22.125,15.875 19.125,18.5 
			20.75,36.625 28.313,38.75 39,39.188 44.438,36.313 42.5,26.688 		"/>
	</g>
</g>
<g id="E">
	<polygon fill="none" points="26.465,29.798 36.503,24.003 32.62,16.953 32.502,16.885 24.34,21.599 24.34,31.023 32.502,35.74 
		40.442,31.154 38.321,27.303 30.233,31.972 	"/>
	<polygon fill="#FFFFFF" points="32.502,35.74 24.34,31.023 24.34,21.599 32.502,16.885 32.62,16.953 30.745,13.549 20.571,19.422 
		20.571,33.199 32.502,40.09 42.261,34.455 40.442,31.154 	"/>
	<polygon fill="#FFFFFF" points="26.465,29.798 30.233,31.972 38.321,27.303 36.503,24.003 	"/>
	<polygon fill="#DEDED8" points="40.668,21.599 36.503,24.003 38.321,27.303 44.436,23.773 44.436,19.422 32.502,12.534 
		30.745,13.549 32.62,16.953 	"/>
	<polygon fill="#DEDED8" points="44.436,26.229 40.668,28.404 40.668,31.023 40.442,31.154 42.261,34.455 44.436,33.199 	"/>
</g>
</svg>
